<svg xmlns="http://www.w3.org/2000/svg" viewBox="0 0 1200 630" width="1200" height="630" fill="none">
  <rect width="1200" height="630" rx="24" fill="#f4f6ef"/>
  <rect x="48" y="48" width="1104" height="534" rx="28" fill="#fbfcf8" stroke="#d6ddcf" stroke-width="2"/>
  <path d="M120 188h130m0 0 55 94 72-94h150m-407 242h130m0 0 55-94 72 94h150" stroke="#137ea8" stroke-width="10" stroke-linecap="round" stroke-linejoin="round"/>
  <path d="M210 188h315m-315 242h315" stroke="#5d8f00" stroke-width="12" stroke-linecap="round"/>
  <circle cx="250" cy="188" r="12" fill="#5d8f00"/>
  <circle cx="250" cy="430" r="12" fill="#5d8f00"/>
  <circle cx="377" cy="282" r="14" fill="#137ea8"/>
  <circle cx="377" cy="336" r="14" fill="#137ea8"/>
  <circle cx="528" cy="188" r="12" fill="#5d8f00"/>
  <circle cx="528" cy="430" r="12" fill="#5d8f00"/>
  <rect x="690" y="152" width="386" height="326" rx="28" fill="#eff4ea" stroke="#d6ddcf" stroke-width="2"/>
  <text x="740" y="236" fill="#243041" font-family="Segoe UI, Arial, sans-serif" font-size="58" font-weight="700">
    WebGPU FFT
  </text>
  <text x="740" y="292" fill="#5c6674" font-family="Segoe UI, Arial, sans-serif" font-size="28">
    Technical whitepaper for a browser-native FFT core
  </text>
  <text x="740" y="352" fill="#243041" font-family="Segoe UI, Arial, sans-serif" font-size="24" font-weight="600">
    GPU-accelerated FFT core
  </text>
  <text x="740" y="392" fill="#243041" font-family="Segoe UI, Arial, sans-serif" font-size="24" font-weight="600">
    CPU-only analysis utilities
  </text>
  <text x="740" y="432" fill="#243041" font-family="Segoe UI, Arial, sans-serif" font-size="24" font-weight="600">
    Real-input API contracts
  </text>
</svg>
