<svg xmlns="http://www.w3.org/2000/svg" viewBox="0 0 500 300" width="500" height="300">
  <defs>
    <linearGradient id="waveGrad" x1="0%" y1="0%" x2="100%" y2="0%">
      <stop offset="0%" stop-color="#4f46e5"/>
      <stop offset="100%" stop-color="#a78bfa"/>
    </linearGradient>
  </defs>
  <rect width="500" height="300" fill="#0f172a" rx="12"/>
  <g transform="translate(50, 150)">
    <path d="M0 0 Q10 -40 20 0 Q30 40 40 0 Q50 -40 60 0 Q70 40 80 0 Q90 -40 100 0 Q110 40 120 0 Q130 -40 140 0 Q150 40 160 0 Q170 -40 180 0 Q190 40 200 0 Q210 -40 220 0 Q230 40 240 0 Q250 -40 260 0 Q270 40 280 0 Q290 -40 300 0 Q310 40 320 0 Q330 -40 340 0 Q350 40 360 0 Q370 -40 380 0 Q390 40 400 0" 
          fill="none" stroke="url(#waveGrad)" stroke-width="3" stroke-linecap="round">
      <animate attributeName="d" dur="4s" repeatCount="indefinite"
        values="M0 0 Q10 -40 20 0 Q30 40 40 0 Q50 -40 60 0 Q70 40 80 0 Q90 -40 100 0 Q110 40 120 0 Q130 -40 140 0 Q150 40 160 0 Q170 -40 180 0 Q190 40 200 0 Q210 -40 220 0 Q230 40 240 0 Q250 -40 260 0 Q270 40 280 0 Q290 -40 300 0 Q310 40 320 0 Q330 -40 340 0 Q350 40 360 0 Q370 -40 380 0 Q390 40 400 0;
                M0 0 Q10 40 20 0 Q30 -40 40 0 Q50 40 60 0 Q70 -40 80 0 Q90 40 100 0 Q110 -40 120 0 Q130 40 140 0 Q150 -40 160 0 Q170 40 180 0 Q190 -40 200 0 Q210 40 220 0 Q230 -40 240 0 Q250 40 260 0 Q270 -40 280 0 Q290 40 300 0 Q310 -40 320 0 Q330 40 340 0 Q350 -40 360 0 Q370 40 380 0 Q390 -40 400 0;
                M0 0 Q10 -40 20 0 Q30 40 40 0 Q50 -40 60 0 Q70 40 80 0 Q90 -40 100 0 Q110 40 120 0 Q130 -40 140 0 Q150 40 160 0 Q170 -40 180 0 Q190 40 200 0 Q210 -40 220 0 Q230 40 240 0 Q250 -40 260 0 Q270 40 280 0 Q290 -40 300 0 Q310 40 320 0 Q330 -40 340 0 Q350 40 360 0 Q370 -40 380 0 Q390 40 400 0"/>
    </path>
    <path d="M0 0 Q10 -20 20 0 Q30 20 40 0 Q50 -20 60 0 Q70 20 80 0 Q90 -20 100 0 Q110 20 120 0 Q130 -20 140 0 Q150 20 160 0 Q170 -20 180 0 Q190 20 200 0 Q210 -20 220 0 Q230 20 240 0 Q250 -20 260 0 Q270 20 280 0 Q290 -20 300 0 Q310 20 320 0 Q330 -20 340 0 Q350 20 360 0 Q370 -20 380 0 Q390 20 400 0" 
          fill="none" stroke="#6366f1" stroke-width="2" stroke-linecap="round" opacity="0.6">
      <animate attributeName="d" dur="3s" repeatCount="indefinite"
        values="M0 0 Q10 -20 20 0 Q30 20 40 0 Q50 -20 60 0 Q70 20 80 0 Q90 -20 100 0 Q110 20 120 0 Q130 -20 140 0 Q150 20 160 0 Q170 -20 180 0 Q190 20 200 0 Q210 -20 220 0 Q230 20 240 0 Q250 -20 260 0 Q270 20 280 0 Q290 -20 300 0 Q310 20 320 0 Q330 -20 340 0 Q350 20 360 0 Q370 -20 380 0 Q390 20 400 0;
                M0 0 Q10 20 20 0 Q30 -20 40 0 Q50 20 60 0 Q70 -20 80 0 Q90 20 100 0 Q110 -20 120 0 Q130 20 140 0 Q150 -20 160 0 Q170 20 180 0 Q190 -20 200 0 Q210 20 220 0 Q230 -20 240 0 Q250 20 260 0 Q270 -20 280 0 Q290 20 300 0 Q310 -20 320 0 Q330 20 340 0 Q350 -20 360 0 Q370 20 380 0 Q390 -20 400 0;
                M0 0 Q10 -20 20 0 Q30 20 40 0 Q50 -20 60 0 Q70 20 80 0 Q90 -20 100 0 Q110 20 120 0 Q130 -20 140 0 Q150 20 160 0 Q170 -20 180 0 Q190 20 200 0 Q210 -20 220 0 Q230 20 240 0 Q250 -20 260 0 Q270 20 280 0 Q290 -20 300 0 Q310 20 320 0 Q330 -20 340 0 Q350 20 360 0 Q370 -20 380 0 Q390 20 400 0"/>
    </path>
  </g>
  <text x="250" y="270" text-anchor="middle" fill="#94a3b8" font-family="system-ui" font-size="16" font-weight="500">WebGPU FFT</text>
</svg>
